<svg version="1.1" xmlns="http://www.w3.org/2000/svg" style="display: block;" viewBox="0 0 2048 2048" width="256" height="256" preserveAspectRatio="none">
<path transform="translate(0,0)" fill="rgb(47,78,63)" d="M 986.428 0 L 1056.55 0 C 1074.61 3.41386 1101.43 2.70072 1120.76 4.51256 C 1162.55 8.59151 1204.08 15.0923 1245.12 23.9821 C 1491.1 78.6386 1708.39 221.84 1855.63 426.326 C 1947.13 553.28 2008.05 699.657 2033.66 854.037 C 2038.17 880.299 2041.2 905.643 2043.74 932.068 C 2044.64 941.526 2046.38 979.786 2048 986.176 L 2048 1062.54 C 2044.72 1077.95 2045 1107.55 2043.24 1124.53 C 2038.71 1167.78 2031.63 1210.73 2022.04 1253.14 C 1965.02 1503.18 1815.92 1722.56 1604.43 1867.61 C 1476.77 1955.28 1330.96 2012.99 1177.89 2036.46 C 1152.25 2040.41 1126.45 2043.22 1100.57 2044.88 C 1092.11 2045.41 1058.14 2046.64 1051.77 2048 L 997.327 2048 C 987.719 2045.85 952.459 2045.28 940.204 2044.09 C 913.154 2041.45 886.955 2038.6 860.017 2034.4 C 705.853 2009.64 559.45 1949.75 432.136 1859.36 C 221.115 1710.32 74.4978 1486.77 21.881 1233.84 C 14.1729 1197.99 8.62059 1161.72 5.25406 1125.21 C 3.55947 1106.32 3.39658 1078.25 0 1060.66 L 0 985.404 C 1.99429 975.634 3.10672 947.758 3.99885 936.373 C 6.02928 910.084 9.21121 883.896 13.5355 857.885 C 39.2025 700.633 101.377 551.588 195.069 422.712 C 343.328 218.608 561.596 76.2899 808.161 22.9547 C 847.174 14.9084 886.562 8.80294 926.181 4.66086 C 943.288 2.9847 970.039 2.58908 985.477 0.159042 L 986.428 0 z M 1041.51 1973.85 C 1565.75 1964.14 1983 1531.54 1973.77 1007.3 C 1964.55 483.052 1532.35 65.4011 1008.09 74.1336 C 483.146 82.8778 64.8228 515.778 74.0573 1040.72 C 83.2918 1565.65 516.582 1983.57 1041.51 1973.85 z"/>
<path transform="translate(0,0)" fill="rgb(122,156,126)" d="M 889.432 306.957 C 890.663 299.144 890.169 287.841 890.134 279.758 L 889.864 233.196 C 889.71 205.08 889.089 185.568 913.761 166.195 C 935.387 149.213 962.468 153.101 988.64 153.121 C 1029.1 153.152 1070.23 151.924 1110.57 154.784 C 1136.54 157.516 1158.33 185.087 1159.29 211.051 C 1160.44 242.328 1158.79 275.054 1159.94 306.854 C 1159.99 327.841 1161.25 360.798 1157.65 380.505 C 1151.34 395.765 1148.44 399.836 1136.67 411.349 C 1151.14 432.204 1169.15 466.934 1182.57 489.946 L 1220.63 555.528 C 1227.62 567.488 1237.32 582.99 1243.5 595.079 L 1420.75 595.168 C 1438.76 595.173 1493.49 594.142 1508.52 596.363 C 1509 592.734 1508.8 586.537 1508.79 582.686 C 1508.67 557.203 1506.82 537.691 1522.25 516.441 C 1536.79 501.344 1550.02 494.087 1571.58 494.117 C 1602.11 494.161 1632.37 494.192 1662.97 494.363 C 1685.16 494.486 1711.44 492.584 1733.1 495.599 C 1741.69 496.795 1754.11 503.914 1760.3 510.49 C 1778.55 529.876 1779.36 542.778 1779.42 567.456 L 1779.46 660.625 C 1779.55 689.851 1784.54 723.682 1762.18 746.315 C 1742.72 766.006 1720.41 764.695 1694.77 764.739 L 1610.23 764.518 C 1578.97 764.363 1549.34 769.553 1525.27 745.351 C 1523.86 743.93 1522.5 742.449 1521.2 740.913 C 1476.74 769.731 1421.29 796.589 1375.44 824.86 C 1457.53 973.136 1545.12 1121.33 1629.12 1268.87 C 1646.89 1268.99 1664.66 1268.98 1682.43 1268.86 C 1695.68 1268.81 1709.2 1268.35 1722.39 1269.28 C 1755.41 1271.61 1778.53 1297.47 1778.85 1330.36 C 1779.33 1378.6 1779.17 1427.19 1779.12 1475.46 C 1779.14 1494.08 1774.2 1509.06 1760.6 1522.08 C 1752.4 1530.08 1742.08 1535.58 1730.87 1537.93 C 1717.32 1540.75 1694.92 1539.34 1680.35 1539.31 C 1643.41 1539.23 1606.37 1539.15 1569.42 1539.32 C 1549.53 1539.41 1536.47 1529.95 1522.75 1517.18 C 1506.59 1496.03 1508.76 1478.02 1508.69 1452.22 C 1509.26 1447.74 1508.95 1438.03 1508.91 1433.05 C 1467.08 1432.47 1424.68 1430.49 1382.85 1428.61 C 1343.93 1426.87 1302.95 1427.13 1264.29 1424.09 C 1254.81 1437.41 1245.88 1452.38 1236.45 1466.21 L 1139.91 1608.07 C 1151.05 1620.13 1156.46 1629.72 1159.5 1646.01 C 1160.05 1669.91 1160.22 1693.82 1160 1717.72 C 1159.47 1750.16 1162.69 1787.09 1157.62 1818.53 C 1151.04 1842.01 1128.44 1862.58 1103.29 1862.82 C 1051.46 1863.32 999.431 1863.64 947.615 1862.9 C 926.61 1864.12 897.19 1842.71 893.062 1821.31 C 886.768 1788.69 891.394 1744.57 889.779 1710.61 C 889.688 1691.3 888.464 1653.58 891.978 1636.42 C 896.238 1626.38 899.221 1621.57 905.317 1612.58 C 894.04 1596.15 874.624 1560.96 864.465 1543.4 L 786.426 1406.97 C 701.885 1404.63 612.826 1399.36 529.027 1398.76 L 529.036 1413.13 C 528.063 1437.77 520.64 1455.5 499.456 1469.58 C 490.074 1474.34 479.293 1477.97 468.65 1478.1 C 426.642 1478.61 384.584 1477.7 342.555 1478.07 C 319.497 1478.28 297.871 1479.2 279.664 1462.4 C 265.848 1449.65 258.798 1435.24 258.545 1416.22 C 258.145 1386.05 258.55 1355.89 258.406 1325.73 C 258.526 1310.24 257.297 1268.51 260.133 1255.38 C 262.377 1245.06 267.358 1235.53 274.552 1227.79 C 294.67 1206.23 313.306 1209.29 338.993 1208.49 C 347.949 1207.76 394.996 1207.3 403.187 1208.26 C 409.924 1208.59 414.959 1208.32 421.681 1207.98 C 431.635 1186.19 454.43 1150.58 467.175 1129.18 L 550.156 990.273 C 539.404 969.427 525.253 946.044 513.457 925.468 C 492.794 889.447 472.457 853.239 452.45 816.85 C 444.557 802.352 430.354 779.362 424.157 764.851 C 420.012 764.675 414.953 764.847 410.73 764.873 C 391.62 764.009 366.508 764.775 346.817 764.89 C 323.983 764.849 307.666 764.791 289.407 748.944 C 276.402 737.691 268.76 719.821 268.639 702.706 C 268.332 659.202 268.835 615.676 268.283 572.166 C 268.157 562.274 267.906 551.559 270.076 541.922 C 276.72 513.371 300.733 494.504 330.002 494.344 C 372.283 494.014 414.873 494.655 457.118 494.203 C 489.714 493.853 501.913 493.652 526.116 516.775 C 541.923 539.021 539.398 556.313 539.715 583.17 C 539.543 587.053 539.215 591.646 539.337 595.47 C 565.93 594.537 596.083 595.189 622.896 595.177 L 787.114 594.938 C 813.32 547.636 843.646 501.746 870.944 454.992 C 880.992 437.781 891.766 418.91 903.248 402.755 C 896.857 393.443 894.739 389.78 891.325 379.07 C 887.921 366.365 889.348 322.769 889.432 306.957 z M 750.21 1341.74 C 735.55 1318.28 721.507 1291.03 707.181 1266.96 C 665.982 1197.77 627.901 1124.9 586.385 1056.15 C 555.043 1106.38 523.995 1164.67 491.798 1213.01 C 518.705 1228.3 528.345 1244.37 528.64 1276 C 528.819 1295.13 529.007 1314.53 528.947 1333.72 L 750.21 1341.74 z M 496.698 762 C 526.305 815.901 557.167 872.702 588.646 925.385 C 603.457 897.407 624.32 864.005 640.959 836.65 C 663.13 800.208 685.056 763.617 706.734 726.88 C 719.711 705.249 733.773 683.236 746.044 661.357 C 677.114 660.9 608.183 660.832 539.252 661.154 C 539.315 708.042 545.928 738.795 496.698 762 z M 822.226 660.839 L 674.554 907.288 C 659.561 932.875 638.354 964.288 625.157 989.732 C 635.351 1010.38 649.073 1033.5 660.556 1053.67 L 730.086 1175.17 C 750.946 1212.76 772.102 1250.19 793.552 1287.44 C 801.437 1301.3 817.892 1331.95 826.777 1344.17 C 877.272 1347.18 932.585 1347.98 983.53 1349.83 L 1320.97 1361.99 L 1446.95 1366.6 C 1462.64 1367.18 1494.14 1367.33 1508.53 1369.08 C 1508.28 1388.52 1507.93 1413.68 1508.91 1433.05 C 1508.95 1438.03 1509.26 1447.74 1508.69 1452.22 C 1508.76 1478.02 1506.59 1496.03 1522.75 1517.18 C 1536.47 1529.95 1549.53 1539.41 1569.42 1539.32 C 1606.37 1539.15 1643.41 1539.23 1680.35 1539.31 C 1694.92 1539.34 1717.32 1540.75 1730.87 1537.93 C 1742.08 1535.58 1752.4 1530.08 1760.6 1522.08 C 1774.2 1509.06 1779.14 1494.08 1779.12 1475.46 C 1779.17 1427.19 1779.33 1378.6 1778.85 1330.36 C 1778.53 1297.47 1755.41 1271.61 1722.39 1269.28 C 1709.2 1268.35 1695.68 1268.81 1682.43 1268.86 C 1664.66 1268.98 1646.89 1268.99 1629.12 1268.87 C 1606.49 1269.17 1577.16 1268 1555.59 1270.85 C 1534.01 1235 1512.59 1196.33 1491.59 1159.94 L 1304.06 831.864 L 1244.84 728.837 C 1232.57 707.361 1218.55 681.4 1205.24 661.038 L 944.527 660.982 C 904.397 660.963 862.216 661.618 822.226 660.839 z"/>
<path transform="translate(0,0)" fill="rgb(47,78,63)" d="M 822.226 660.839 C 862.216 661.618 904.397 660.963 944.527 660.982 L 1205.24 661.038 C 1218.55 681.4 1232.57 707.361 1244.84 728.837 L 1304.06 831.864 L 1491.59 1159.94 C 1512.59 1196.33 1534.01 1235 1555.59 1270.85 C 1577.16 1268 1606.49 1269.17 1629.12 1268.87 C 1646.89 1268.99 1664.66 1268.98 1682.43 1268.86 C 1695.68 1268.81 1709.2 1268.35 1722.39 1269.28 C 1755.41 1271.61 1778.53 1297.47 1778.85 1330.36 C 1779.33 1378.6 1779.17 1427.19 1779.12 1475.46 C 1779.14 1494.08 1774.2 1509.06 1760.6 1522.08 C 1752.4 1530.08 1742.08 1535.58 1730.87 1537.93 C 1717.32 1540.75 1694.92 1539.34 1680.35 1539.31 C 1643.41 1539.23 1606.37 1539.15 1569.42 1539.32 C 1549.53 1539.41 1536.47 1529.95 1522.75 1517.18 C 1506.59 1496.03 1508.76 1478.02 1508.69 1452.22 C 1509.26 1447.74 1508.95 1438.03 1508.91 1433.05 C 1507.93 1413.68 1508.28 1388.52 1508.53 1369.08 C 1494.14 1367.33 1462.64 1367.18 1446.95 1366.6 L 1320.97 1361.99 L 983.53 1349.83 C 932.585 1347.98 877.272 1347.18 826.777 1344.17 C 817.892 1331.95 801.437 1301.3 793.552 1287.44 C 772.102 1250.19 750.946 1212.76 730.086 1175.17 L 660.556 1053.67 C 649.073 1033.5 635.351 1010.38 625.157 989.732 C 638.354 964.288 659.561 932.875 674.554 907.288 L 822.226 660.839 z M 975.115 834.94 C 953.361 841.9 945.866 844.974 925.306 856.127 C 910.215 846.053 892.123 832.917 876.885 823.86 C 860.553 837.191 836.573 860.151 823.468 876.446 L 856.023 925.019 C 846.852 943.164 841.904 955.545 835.748 975.267 C 817.824 978.415 797.119 981.535 779.534 985.357 C 774.319 1009.7 776.507 1036.77 778.351 1061.39 C 795.004 1064.92 818.411 1070.05 835.25 1071.74 C 841.925 1093.75 845.23 1101.85 855.862 1122.66 C 847.252 1135.45 830.28 1158.68 823.261 1170.68 C 832.761 1183.22 864.392 1215 877.162 1224.41 C 892.979 1213.48 909.467 1202.35 925.006 1191.09 C 942.361 1200.21 956.273 1206.77 975.239 1212.97 C 978.975 1231.85 982.584 1251.14 986.6 1269.92 C 1001.6 1270.21 1039.89 1271.71 1053.24 1269.84 C 1056.35 1269.45 1059.32 1269.54 1061.6 1267.62 C 1065.48 1257.21 1069.27 1226.09 1072.76 1212.23 C 1092.31 1206.67 1104.83 1201 1122.88 1191.39 C 1138.86 1202.28 1154.77 1213.26 1170.63 1224.31 C 1190.22 1207.84 1208.41 1189.78 1225.02 1170.31 C 1214.54 1155.47 1201.37 1137.84 1192.09 1122.59 C 1202.03 1103.24 1207.14 1093.29 1212.33 1071.95 C 1231.71 1069.42 1249.62 1065.94 1268.8 1062.21 C 1272.6 1043.18 1270.46 1005.25 1268.56 985.588 C 1251.5 982.475 1229.55 977.529 1212.99 975.223 C 1206.29 955.967 1201.63 943.292 1191.85 925.031 C 1201.84 909.05 1214.04 892.292 1224.92 876.739 C 1213.15 862.171 1185.75 834.45 1170.63 823.578 C 1154.93 834.455 1139.13 845.605 1123.32 856.277 C 1105.01 846.003 1092.86 841.65 1073.4 834.371 C 1068.88 816.405 1064.98 796.445 1061.45 778.167 C 1042.27 776.628 1014.93 776.005 995.602 777.399 C 992.633 777.575 989.2 777.295 987.044 778.996 C 982.154 792.23 979.544 819.776 975.115 834.94 z"/>
<path transform="translate(0,0)" fill="rgb(47,78,63)" d="M 1016.18 919.689 C 1073.55 915.312 1123.63 958.203 1128.13 1015.56 C 1132.63 1072.92 1089.85 1123.1 1032.5 1127.72 C 974.975 1132.36 924.612 1089.42 920.098 1031.88 C 915.584 974.349 958.634 924.079 1016.18 919.689 z"/>
<path transform="translate(0,0)" fill="rgb(47,78,63)" d="M 864.557 1410.8 C 880.716 1410.78 897.289 1411.33 913.451 1412.06 C 1004.8 1416.18 1096.73 1417.47 1188.01 1422.24 L 1071.94 1593.57 C 1101.49 1592.74 1115.77 1591 1139.91 1608.07 C 1151.05 1620.13 1156.46 1629.72 1159.5 1646.01 C 1160.05 1669.91 1160.22 1693.82 1160 1717.72 C 1159.47 1750.16 1162.69 1787.09 1157.62 1818.53 C 1151.04 1842.01 1128.44 1862.58 1103.29 1862.82 C 1051.46 1863.32 999.431 1863.64 947.615 1862.9 C 926.61 1864.12 897.19 1842.71 893.062 1821.31 C 886.768 1788.69 891.394 1744.57 889.779 1710.61 C 889.688 1691.3 888.464 1653.58 891.978 1636.42 C 896.238 1626.38 899.221 1621.57 905.317 1612.58 C 925.606 1593.09 941.513 1593.3 967.56 1592.93 C 944.35 1550.47 918.692 1508.42 895.368 1465.93 C 885.542 1448.02 873.146 1428.97 864.557 1410.8 z"/>
<path transform="translate(0,0)" fill="rgb(47,78,63)" d="M 889.432 306.957 C 890.663 299.144 890.169 287.841 890.134 279.758 L 889.864 233.196 C 889.71 205.08 889.089 185.568 913.761 166.195 C 935.387 149.213 962.468 153.101 988.64 153.121 C 1029.1 153.152 1070.23 151.924 1110.57 154.784 C 1136.54 157.516 1158.33 185.087 1159.29 211.051 C 1160.44 242.328 1158.79 275.054 1159.94 306.854 C 1159.99 327.841 1161.25 360.798 1157.65 380.505 C 1151.34 395.765 1148.44 399.836 1136.67 411.349 C 1114.66 426.775 1095.81 424.198 1069.65 424.24 L 1129.09 527.348 C 1142.03 549.767 1155.75 572.488 1167.79 595.307 C 1121.81 596.773 1070.48 595.777 1023.92 595.736 C 970.892 595.688 914.657 596.685 861.975 595.429 C 872.448 579.918 886.219 555.263 896.111 538.766 L 964.843 424.255 C 962.129 424.239 959.415 424.21 956.702 424.167 C 933.359 423.784 919.971 420.048 903.248 402.755 C 896.857 393.443 894.739 389.78 891.325 379.07 C 887.921 366.365 889.348 322.769 889.432 306.957 z"/>
<path transform="translate(0,0)" fill="rgb(47,78,63)" d="M 1522.25 516.441 C 1536.79 501.344 1550.02 494.087 1571.58 494.117 C 1602.11 494.161 1632.37 494.192 1662.97 494.363 C 1685.16 494.486 1711.44 492.584 1733.1 495.599 C 1741.69 496.795 1754.11 503.914 1760.3 510.49 C 1778.55 529.876 1779.36 542.778 1779.42 567.456 L 1779.46 660.625 C 1779.55 689.851 1784.54 723.682 1762.18 746.315 C 1742.72 766.006 1720.41 764.695 1694.77 764.739 L 1610.23 764.518 C 1578.97 764.363 1549.34 769.553 1525.27 745.351 C 1523.86 743.93 1522.5 742.449 1521.2 740.913 C 1506.45 721.051 1508.49 698.313 1508.08 674.576 C 1471.27 693.229 1435.74 716.546 1399.42 736.253 C 1380.7 746.407 1362.6 758.431 1343.45 767.77 C 1327.97 742.859 1314.05 717.032 1299.24 691.727 C 1293.32 681.597 1287.35 671.495 1281.84 661.13 C 1357.08 660.192 1433.38 661.135 1508.77 660.794 C 1508.49 640.881 1507.78 615.978 1508.52 596.363 C 1509 592.734 1508.8 586.537 1508.79 582.686 C 1508.67 557.203 1506.82 537.691 1522.25 516.441 z"/>
<path transform="translate(0,0)" fill="rgb(47,78,63)" d="M 346.817 764.89 C 323.983 764.849 307.666 764.791 289.407 748.944 C 276.402 737.691 268.76 719.821 268.639 702.706 C 268.332 659.202 268.835 615.676 268.283 572.166 C 268.157 562.274 267.906 551.559 270.076 541.922 C 276.72 513.371 300.733 494.504 330.002 494.344 C 372.283 494.014 414.873 494.655 457.118 494.203 C 489.714 493.853 501.913 493.652 526.116 516.775 C 541.923 539.021 539.398 556.313 539.715 583.17 C 539.543 587.053 539.215 591.646 539.337 595.47 L 539.252 661.154 C 539.315 708.042 545.928 738.795 496.698 762 C 483.953 766.485 440.403 764.742 424.157 764.851 C 420.012 764.675 414.953 764.847 410.73 764.873 C 391.62 764.009 366.508 764.775 346.817 764.89 z"/>
<path transform="translate(0,0)" fill="rgb(47,78,63)" d="M 421.681 1207.98 C 440.218 1207.94 476.047 1205.56 491.798 1213.01 C 518.705 1228.3 528.345 1244.37 528.64 1276 C 528.819 1295.13 529.007 1314.53 528.947 1333.72 L 529.027 1398.76 L 529.036 1413.13 C 528.063 1437.77 520.64 1455.5 499.456 1469.58 C 490.074 1474.34 479.293 1477.97 468.65 1478.1 C 426.642 1478.61 384.584 1477.7 342.555 1478.07 C 319.497 1478.28 297.871 1479.2 279.664 1462.4 C 265.848 1449.65 258.798 1435.24 258.545 1416.22 C 258.145 1386.05 258.55 1355.89 258.406 1325.73 C 258.526 1310.24 257.297 1268.51 260.133 1255.38 C 262.377 1245.06 267.358 1235.53 274.552 1227.79 C 294.67 1206.23 313.306 1209.29 338.993 1208.49 C 347.949 1207.76 394.996 1207.3 403.187 1208.26 C 409.924 1208.59 414.959 1208.32 421.681 1207.98 z"/>
<path transform="translate(0,0)" fill="rgb(122,156,126)" d="M 346.817 764.89 C 366.508 764.775 391.62 764.009 410.73 764.873 C 410.76 800.624 410.264 836.374 409.242 872.11 L 407.415 989.602 L 403.187 1208.26 C 394.996 1207.3 347.949 1207.76 338.993 1208.49 C 337.576 1152.86 340.813 1086.71 342.072 1030.5 C 344.033 943.002 343.123 851.934 346.817 764.89 z"/>
<path transform="translate(0,0)" fill="rgb(122,156,126)" d="M 529.036 1413.13 C 615.981 1465.09 702.305 1518.09 787.988 1572.11 L 858.378 1615.25 C 867.071 1620.58 884.862 1630.93 891.978 1636.42 C 888.464 1653.58 889.688 1691.3 889.779 1710.61 C 878.631 1705.38 859.71 1692.89 848.66 1686.18 C 821.317 1669.57 794.311 1651.94 766.964 1635.29 L 606.692 1537.05 C 571.4 1515.31 533.631 1492.7 499.456 1469.58 C 520.64 1455.5 528.063 1437.77 529.036 1413.13 z"/>
<path transform="translate(0,0)" fill="rgb(122,156,126)" d="M 1159.94 306.854 C 1178.31 315.319 1205.19 332.662 1223.54 343.473 L 1319.17 398.709 L 1459.48 480.025 C 1480.4 492.127 1501.77 503.616 1522.25 516.441 C 1506.82 537.691 1508.67 557.203 1508.79 582.686 C 1470.52 562.923 1428.01 536.178 1390.28 514.451 L 1157.65 380.505 C 1161.25 360.798 1159.99 327.841 1159.94 306.854 z"/>
<path transform="translate(0,0)" fill="rgb(122,156,126)" d="M 889.432 306.957 C 889.348 322.769 887.921 366.365 891.325 379.07 C 868.327 393.457 844.589 406.381 821.266 420.182 C 728.146 475.281 632.213 527.178 539.715 583.17 C 539.398 556.313 541.923 539.021 526.116 516.775 C 532.81 511.86 545.351 505.132 552.867 500.812 L 597.256 475.14 L 757.552 382.333 C 784.356 367.064 811.05 351.601 837.63 335.946 C 849.912 328.706 877.685 311.482 889.432 306.957 z"/>
<path transform="translate(0,0)" fill="rgb(122,156,126)" d="M 1159.5 1646.01 C 1172.24 1637.58 1197.37 1624.58 1211.53 1616.74 L 1310.54 1561.94 L 1438.77 1490.46 C 1460.42 1478.42 1487 1462.82 1508.69 1452.22 C 1508.76 1478.02 1506.59 1496.03 1522.75 1517.18 C 1500.12 1531.12 1473.66 1545.09 1450.27 1558.11 L 1331.99 1623.8 C 1277.36 1653.9 1215.41 1690.63 1160 1717.72 C 1160.22 1693.82 1160.05 1669.91 1159.5 1646.01 z"/>
</svg>